<svg xmlns="http://www.w3.org/2000/svg" xmlns:xlink="http://www.w3.org/1999/xlink" width="300" zoomAndPan="magnify" viewBox="0 0 224.87999 74.999997" height="100" preserveAspectRatio="xMidYMid meet" version="1.0"><defs><g><g id="id1"/></g><clipPath id="id2"><path d="M 104 0.0195312 L 124 0.0195312 L 124 32 L 104 32 Z M 104 0.0195312 " clip-rule="nonzero"/></clipPath><clipPath id="id3"><path d="M 52.988281 48.761719 L 166.179688 48.761719 L 166.179688 73.960938 L 52.988281 73.960938 Z M 52.988281 48.761719 " clip-rule="nonzero"/></clipPath><clipPath id="id4"><path d="M 99 42.488281 L 102 42.488281 L 102 49 L 99 49 Z M 99 42.488281 " clip-rule="nonzero"/></clipPath></defs><g fill="rgb(11.369324%, 39.99939%, 21.958923%)" fill-opacity="1"><g transform="translate(0.74532, 39.906289)"><g><path d="M 36.609375 5.53125 C 37.179688 6.726562 37.128906 7.898438 36.453125 9.046875 C 35.773438 10.203125 34.796875 11.035156 33.515625 11.546875 C 32.191406 12.023438 30.910156 12.050781 29.671875 11.625 C 28.429688 11.207031 27.359375 10.476562 26.453125 9.4375 C 25.617188 8.445312 24.960938 7.320312 24.484375 6.0625 C 24.003906 4.800781 23.71875 3.414062 23.625 1.90625 C 23.539062 0.394531 23.507812 -0.894531 23.53125 -1.96875 C 23.5625 -3.050781 23.65625 -4.414062 23.8125 -6.0625 C 23.894531 -6.9375 24.035156 -8.269531 24.234375 -10.0625 C 24.429688 -11.863281 24.570312 -13.296875 24.65625 -14.359375 C 24.75 -15.421875 24.832031 -16.707031 24.90625 -18.21875 C 24.976562 -19.726562 24.988281 -21.128906 24.9375 -22.421875 C 24.875 -23.285156 24.816406 -24.007812 24.765625 -24.59375 C 24.722656 -25.175781 24.628906 -25.914062 24.484375 -26.8125 C 24.335938 -27.71875 24.132812 -28.476562 23.875 -29.09375 C 23.625 -29.707031 23.257812 -30.3125 22.78125 -30.90625 C 22.300781 -31.507812 21.726562 -31.972656 21.0625 -32.296875 C 20.4375 -32.628906 19.753906 -32.75 19.015625 -32.65625 C 18.285156 -32.570312 17.601562 -32.367188 16.96875 -32.046875 C 16.34375 -31.734375 15.765625 -31.335938 15.234375 -30.859375 C 13.347656 -29.210938 12.03125 -27.65625 11.28125 -26.1875 C 11.3125 -26.125 11.328125 -25.992188 11.328125 -25.796875 C 11.328125 -25.609375 11.328125 -25.457031 11.328125 -25.34375 C 11.472656 -21.476562 11.484375 -17.328125 11.359375 -12.890625 C 11.273438 -10.015625 11.21875 -7.9375 11.1875 -6.65625 C 11.125 -3.320312 11.035156 -1.222656 10.921875 -0.359375 C 10.859375 0.117188 10.601562 0.441406 10.15625 0.609375 C 9.707031 0.773438 9.253906 0.765625 8.796875 0.578125 C 8.347656 0.398438 8.082031 0.0859375 8 -0.359375 C 7.820312 -1.171875 7.6875 -2.0625 7.59375 -3.03125 C 7.5 -4.007812 7.4375 -4.847656 7.40625 -5.546875 C 7.382812 -6.253906 7.363281 -7.195312 7.34375 -8.375 C 7.332031 -9.5625 7.328125 -10.410156 7.328125 -10.921875 C 7.203125 -14.085938 7.097656 -17.484375 7.015625 -21.109375 C 7.015625 -21.585938 7.015625 -22.515625 7.015625 -23.890625 C 7.015625 -25.273438 6.988281 -26.445312 6.9375 -27.40625 C 6.894531 -28.363281 6.8125 -29.289062 6.6875 -30.1875 C 6.476562 -31.75 6.164062 -32.675781 5.75 -32.96875 C 5.75 -32.96875 5.734375 -32.96875 5.703125 -32.96875 C 5.671875 -32.96875 5.597656 -33 5.484375 -33.0625 C 5.390625 -33.0625 5.328125 -33.078125 5.296875 -33.109375 C 5.328125 -33.078125 5.328125 -33.0625 5.296875 -33.0625 C 4.941406 -32.820312 4.644531 -32.359375 4.40625 -31.671875 C 4.28125 -31.253906 4.023438 -31 3.640625 -30.90625 C 3.253906 -30.8125 2.910156 -30.90625 2.609375 -31.1875 C 2.304688 -31.476562 2.203125 -31.832031 2.296875 -32.25 C 2.585938 -33.957031 3.289062 -35.203125 4.40625 -35.984375 C 5.1875 -36.460938 5.988281 -36.625 6.8125 -36.46875 C 7.632812 -36.320312 8.359375 -35.9375 8.984375 -35.3125 C 9.878906 -34.414062 10.523438 -32.898438 10.921875 -30.765625 C 10.953125 -30.523438 10.976562 -30.285156 11 -30.046875 C 12.082031 -31.722656 13.382812 -33.078125 14.90625 -34.109375 C 16.4375 -35.148438 18.117188 -35.6875 19.953125 -35.71875 C 22.015625 -35.71875 23.867188 -35.101562 25.515625 -33.875 C 27.160156 -32.675781 28.421875 -30.863281 29.296875 -28.4375 C 29.953125 -26.582031 30.320312 -24.140625 30.40625 -21.109375 C 30.46875 -18.898438 30.347656 -16.144531 30.046875 -12.84375 C 29.960938 -11.976562 29.773438 -10.351562 29.484375 -7.96875 C 29.203125 -5.59375 29 -3.550781 28.875 -1.84375 C 28.757812 -0.132812 28.734375 1.507812 28.796875 3.09375 C 28.890625 5.40625 29.65625 6.9375 31.09375 7.6875 C 31.925781 8.101562 32.648438 8.113281 33.265625 7.71875 C 33.878906 7.332031 34.273438 6.691406 34.453125 5.796875 C 34.578125 5.316406 34.914062 5.039062 35.46875 4.96875 C 36.019531 4.894531 36.398438 5.082031 36.609375 5.53125 Z M 36.609375 5.53125 "/></g></g></g><g fill="rgb(11.369324%, 39.99939%, 21.958923%)" fill-opacity="1"><g transform="translate(33.754384, 39.906289)"><g><path d="M 18.46875 -22.234375 C 18.945312 -22.628906 19.394531 -22.625 19.8125 -22.21875 C 20.226562 -21.8125 20.242188 -21.367188 19.859375 -20.890625 C 18.898438 -19.785156 17.382812 -18.929688 15.3125 -18.328125 C 15.101562 -16.265625 14.3125 -14.46875 12.9375 -12.9375 C 12.125 -12.039062 11.117188 -11.421875 9.921875 -11.078125 C 8.722656 -10.734375 7.554688 -10.648438 6.421875 -10.828125 C 5.285156 -11.003906 4.226562 -11.472656 3.25 -12.234375 C 2.28125 -13.003906 1.617188 -13.988281 1.265625 -15.1875 C 0.804688 -16.59375 0.898438 -18.140625 1.546875 -19.828125 C 2.191406 -21.523438 3.175781 -22.894531 4.5 -23.9375 C 5 -24.84375 5.800781 -25.46875 6.90625 -25.8125 C 8.019531 -26.15625 9.117188 -26.207031 10.203125 -25.96875 C 11.484375 -25.695312 12.570312 -25.070312 13.46875 -24.09375 C 14.375 -23.125 14.945312 -21.984375 15.1875 -20.671875 C 15.1875 -20.671875 15.203125 -20.65625 15.234375 -20.625 C 16.515625 -21.007812 17.59375 -21.546875 18.46875 -22.234375 Z M 8.71875 -22.859375 C 7.90625 -22.953125 7.378906 -22.773438 7.140625 -22.328125 C 7.054688 -22.117188 7.144531 -21.878906 7.40625 -21.609375 C 7.863281 -21.097656 8.8125 -20.664062 10.25 -20.3125 C 10.632812 -20.21875 11.066406 -20.171875 11.546875 -20.171875 C 11.242188 -21.847656 10.300781 -22.742188 8.71875 -22.859375 Z M 7.375 -14.328125 C 8.65625 -14.148438 9.734375 -14.660156 10.609375 -15.859375 C 10.929688 -16.304688 11.179688 -16.84375 11.359375 -17.46875 C 9.710938 -17.289062 8.171875 -17.5625 6.734375 -18.28125 C 6.078125 -18.613281 5.523438 -19.050781 5.078125 -19.59375 C 4.804688 -18.875 4.640625 -18.257812 4.578125 -17.75 C 4.546875 -17.351562 4.546875 -17.019531 4.578125 -16.75 C 4.578125 -16.539062 4.609375 -16.378906 4.671875 -16.265625 C 4.765625 -16.054688 4.882812 -15.859375 5.03125 -15.671875 C 5.175781 -15.492188 5.332031 -15.328125 5.5 -15.171875 C 5.664062 -15.023438 5.851562 -14.890625 6.0625 -14.765625 C 6.269531 -14.648438 6.476562 -14.554688 6.6875 -14.484375 C 6.90625 -14.410156 7.132812 -14.359375 7.375 -14.328125 Z M 7.375 -14.328125 "/></g></g></g><g fill="rgb(11.369324%, 39.99939%, 21.958923%)" fill-opacity="1"><g transform="translate(49.607713, 39.906289)"><g><path d="M 22.421875 -18.375 C 22.742188 -18.789062 23.125 -18.816406 23.5625 -18.453125 C 24 -18.097656 24.097656 -17.710938 23.859375 -17.296875 C 23.765625 -17.148438 23.628906 -16.925781 23.453125 -16.625 C 23.210938 -16.175781 23.015625 -15.820312 22.859375 -15.5625 C 22.710938 -15.3125 22.484375 -14.9375 22.171875 -14.4375 C 21.859375 -13.945312 21.585938 -13.550781 21.359375 -13.25 C 21.140625 -12.945312 20.847656 -12.59375 20.484375 -12.1875 C 20.128906 -11.789062 19.804688 -11.488281 19.515625 -11.28125 C 19.234375 -11.070312 18.894531 -10.867188 18.5 -10.671875 C 18.113281 -10.472656 17.738281 -10.363281 17.375 -10.34375 C 17.019531 -10.332031 16.640625 -10.394531 16.234375 -10.53125 C 15.835938 -10.664062 15.425781 -10.898438 15 -11.234375 C 14.101562 -11.984375 13.460938 -13.148438 13.078125 -14.734375 C 11.335938 -11.378906 9.285156 -9.671875 6.921875 -9.609375 C 6.316406 -9.578125 5.753906 -9.648438 5.234375 -9.828125 C 4.710938 -10.015625 4.269531 -10.28125 3.90625 -10.625 C 3.550781 -10.96875 3.226562 -11.351562 2.9375 -11.78125 C 2.65625 -12.21875 2.429688 -12.707031 2.265625 -13.25 C 2.097656 -13.789062 1.96875 -14.320312 1.875 -14.84375 C 1.789062 -15.375 1.734375 -15.90625 1.703125 -16.4375 C 1.648438 -18.113281 1.832031 -19.71875 2.25 -21.25 C 2.875 -23.4375 3.503906 -24.859375 4.140625 -25.515625 C 4.429688 -25.785156 4.765625 -25.867188 5.140625 -25.765625 C 5.515625 -25.660156 5.765625 -25.410156 5.890625 -25.015625 C 6.003906 -24.691406 6.066406 -24.316406 6.078125 -23.890625 C 6.097656 -23.472656 6.082031 -23.003906 6.03125 -22.484375 C 5.988281 -21.960938 5.96875 -21.566406 5.96875 -21.296875 C 5.96875 -21.203125 5.96875 -20.597656 5.96875 -19.484375 C 5.96875 -18.378906 5.984375 -17.785156 6.015625 -17.703125 C 6.109375 -16.265625 6.289062 -15.226562 6.5625 -14.59375 C 6.644531 -14.382812 6.734375 -14.253906 6.828125 -14.203125 C 6.828125 -14.203125 6.898438 -14.210938 7.046875 -14.234375 C 7.078125 -14.234375 7.109375 -14.234375 7.140625 -14.234375 C 8.460938 -14.597656 9.722656 -15.960938 10.921875 -18.328125 C 11.640625 -19.703125 12.375 -21.722656 13.125 -24.390625 C 13.300781 -24.960938 13.65625 -25.300781 14.1875 -25.40625 C 14.726562 -25.507812 15.207031 -25.378906 15.625 -25.015625 C 16.050781 -24.660156 16.175781 -24.179688 16 -23.578125 C 15.664062 -22.234375 15.425781 -21.25 15.28125 -20.625 C 15.09375 -19.75 15.03125 -18.925781 15.09375 -18.15625 C 15.238281 -15.875 15.671875 -14.34375 16.390625 -13.5625 C 16.628906 -13.320312 16.882812 -13.1875 17.15625 -13.15625 C 17.425781 -13.132812 17.734375 -13.25 18.078125 -13.5 C 18.421875 -13.75 18.648438 -13.929688 18.765625 -14.046875 C 18.890625 -14.171875 19.117188 -14.414062 19.453125 -14.78125 C 19.867188 -15.195312 20.859375 -16.394531 22.421875 -18.375 Z M 22.421875 -18.375 "/></g></g></g><g fill="rgb(11.369324%, 39.99939%, 21.958923%)" fill-opacity="1"><g transform="translate(68.829315, 39.906289)"><g><path d="M 9.203125 -24.9375 C 10.429688 -25.082031 11.472656 -24.726562 12.328125 -23.875 C 13.179688 -23.019531 13.566406 -21.976562 13.484375 -20.75 C 13.359375 -19.3125 12.800781 -18.3125 11.8125 -17.75 C 11.15625 -17.320312 10.472656 -17.222656 9.765625 -17.453125 C 9.066406 -17.679688 8.613281 -18.15625 8.40625 -18.875 C 8.21875 -19.5 8.398438 -19.945312 8.953125 -20.21875 C 9.515625 -20.488281 10.003906 -20.410156 10.421875 -19.984375 C 10.597656 -20.078125 10.703125 -20.15625 10.734375 -20.21875 C 10.910156 -20.363281 11.03125 -20.601562 11.09375 -20.9375 C 11.21875 -21.53125 11.054688 -21.992188 10.609375 -22.328125 C 10.066406 -22.566406 9.539062 -22.59375 9.03125 -22.40625 C 8.519531 -22.226562 8.054688 -21.945312 7.640625 -21.5625 C 6.921875 -20.875 6.472656 -19.765625 6.296875 -18.234375 C 6.296875 -18.054688 6.296875 -17.9375 6.296875 -17.875 C 6.378906 -16.914062 6.4375 -15.597656 6.46875 -13.921875 C 6.53125 -13.359375 6.535156 -12.671875 6.484375 -11.859375 C 6.441406 -11.046875 6.300781 -10.390625 6.0625 -9.890625 C 5.789062 -9.429688 5.414062 -9.21875 4.9375 -9.25 C 4.457031 -9.28125 4.082031 -9.503906 3.8125 -9.921875 C 3.789062 -9.921875 3.78125 -9.910156 3.78125 -9.890625 C 3.625 -10.128906 3.492188 -10.425781 3.390625 -10.78125 C 3.285156 -11.144531 3.21875 -11.421875 3.1875 -11.609375 C 3.15625 -11.804688 3.125 -12.164062 3.09375 -12.6875 C 3.070312 -13.21875 3.0625 -13.507812 3.0625 -13.5625 C 3.03125 -14.039062 2.96875 -14.722656 2.875 -15.609375 C 2.78125 -16.492188 2.734375 -17.023438 2.734375 -17.203125 C 2.523438 -19.453125 2.242188 -21.804688 1.890625 -24.265625 C 1.828125 -24.796875 2.007812 -25.210938 2.4375 -25.515625 C 2.875 -25.816406 3.304688 -25.757812 3.734375 -25.34375 C 4.421875 -24.644531 4.972656 -23.726562 5.390625 -22.59375 C 6.410156 -23.945312 7.679688 -24.726562 9.203125 -24.9375 Z M 10.46875 -19.984375 C 10.53125 -19.929688 10.578125 -19.875 10.609375 -19.8125 C 10.546875 -19.875 10.5 -19.929688 10.46875 -19.984375 Z M 10.46875 -19.984375 "/></g></g></g><g fill="rgb(11.369324%, 39.99939%, 21.958923%)" fill-opacity="1"><g transform="translate(82.302401, 39.906289)"><g><path d="M 11.6875 -16.484375 C 12.101562 -16.878906 12.523438 -16.910156 12.953125 -16.578125 C 13.390625 -16.242188 13.488281 -15.820312 13.25 -15.3125 C 12.925781 -14.625 12.546875 -13.976562 12.109375 -13.375 C 11.671875 -12.78125 11.164062 -12.226562 10.59375 -11.71875 C 10.03125 -11.21875 9.441406 -10.820312 8.828125 -10.53125 C 8.210938 -10.25 7.535156 -10.132812 6.796875 -10.1875 C 6.066406 -10.25 5.34375 -10.519531 4.625 -11 C 3.789062 -11.539062 3.144531 -12.296875 2.6875 -13.265625 C 2.238281 -14.242188 2.03125 -15.257812 2.0625 -16.3125 C 2.09375 -16.96875 2.195312 -18.0625 2.375 -19.59375 C 2.5625 -21.144531 2.757812 -22.234375 2.96875 -22.859375 C 3.144531 -23.367188 3.476562 -23.707031 3.96875 -23.875 C 4.46875 -24.039062 4.925781 -23.988281 5.34375 -23.71875 C 5.757812 -23.445312 5.96875 -23.03125 5.96875 -22.46875 C 6.03125 -21.625 5.925781 -19.929688 5.65625 -17.390625 C 5.507812 -15.765625 5.707031 -14.582031 6.25 -13.84375 C 6.570312 -13.445312 6.925781 -13.234375 7.3125 -13.203125 C 7.707031 -13.171875 8.128906 -13.304688 8.578125 -13.609375 C 9.023438 -13.910156 9.414062 -14.207031 9.75 -14.5 C 10.082031 -14.800781 10.457031 -15.1875 10.875 -15.65625 C 11.289062 -16.125 11.5625 -16.398438 11.6875 -16.484375 Z M 6.515625 -26.859375 C 6.210938 -26.265625 5.703125 -25.96875 4.984375 -25.96875 C 4.265625 -25.96875 3.765625 -26.265625 3.484375 -26.859375 C 3.203125 -27.460938 3.203125 -28.054688 3.484375 -28.640625 C 3.765625 -29.222656 4.265625 -29.515625 4.984375 -29.515625 C 5.703125 -29.515625 6.210938 -29.222656 6.515625 -28.640625 C 6.816406 -28.054688 6.816406 -27.460938 6.515625 -26.859375 Z M 6.515625 -26.859375 "/></g></g></g><g fill="rgb(11.369324%, 39.99939%, 21.958923%)" fill-opacity="1"><g transform="translate(91.284455, 39.906289)"><g><path d="M 15.09375 -17.390625 C 15.601562 -17.535156 15.953125 -17.367188 16.140625 -16.890625 C 16.335938 -16.410156 16.226562 -16.019531 15.8125 -15.71875 C 15.570312 -15.570312 14.867188 -15.242188 13.703125 -14.734375 C 13.398438 -14.617188 12.992188 -14.429688 12.484375 -14.171875 C 11.972656 -13.921875 11.644531 -13.765625 11.5 -13.703125 C 11.289062 -13.609375 10.9375 -13.445312 10.4375 -13.21875 C 9.945312 -13 9.566406 -12.832031 9.296875 -12.71875 C 10.554688 -9.6875 10.617188 -7.289062 9.484375 -5.53125 C 9.003906 -4.75 8.363281 -4.171875 7.5625 -3.796875 C 6.769531 -3.421875 5.972656 -3.367188 5.171875 -3.640625 C 4.390625 -3.878906 3.734375 -4.34375 3.203125 -5.03125 C 2.679688 -5.71875 2.378906 -6.46875 2.296875 -7.28125 C 2.054688 -9.28125 2.910156 -11.132812 4.859375 -12.84375 C 4.859375 -12.84375 4.84375 -12.859375 4.8125 -12.890625 C 4.78125 -12.953125 4.765625 -13 4.765625 -13.03125 C 4.285156 -13.957031 3.960938 -14.613281 3.796875 -15 C 3.628906 -15.394531 3.410156 -15.972656 3.140625 -16.734375 C 2.867188 -17.492188 2.691406 -18.191406 2.609375 -18.828125 C 2.242188 -21.128906 2.765625 -22.96875 4.171875 -24.34375 C 4.773438 -24.945312 5.582031 -25.289062 6.59375 -25.375 C 7.613281 -25.46875 8.484375 -25.289062 9.203125 -24.84375 C 9.867188 -24.457031 10.378906 -23.910156 10.734375 -23.203125 C 11.097656 -22.492188 11.234375 -21.769531 11.140625 -21.03125 C 11.023438 -20.1875 10.628906 -19.53125 9.953125 -19.0625 C 9.273438 -18.601562 8.546875 -18.597656 7.765625 -19.046875 C 7.316406 -19.378906 7.191406 -19.789062 7.390625 -20.28125 C 7.585938 -20.78125 7.96875 -20.96875 8.53125 -20.84375 C 8.894531 -20.75 9.0625 -20.914062 9.03125 -21.34375 C 8.96875 -21.90625 8.757812 -22.335938 8.40625 -22.640625 C 8.34375 -22.671875 8.296875 -22.6875 8.265625 -22.6875 C 7.578125 -23.039062 7.050781 -22.769531 6.6875 -21.875 C 6.570312 -21.570312 6.503906 -21.234375 6.484375 -20.859375 C 6.472656 -20.492188 6.488281 -20.148438 6.53125 -19.828125 C 6.582031 -19.515625 6.675781 -19.140625 6.8125 -18.703125 C 6.945312 -18.273438 7.054688 -17.941406 7.140625 -17.703125 C 7.234375 -17.460938 7.367188 -17.132812 7.546875 -16.71875 C 7.609375 -16.59375 7.640625 -16.5 7.640625 -16.4375 C 7.785156 -16.082031 8.007812 -15.585938 8.3125 -14.953125 C 9.238281 -15.410156 10.253906 -15.816406 11.359375 -16.171875 C 13.785156 -16.984375 15.03125 -17.390625 15.09375 -17.390625 Z M 6.78125 -7.859375 C 6.84375 -8.335938 6.601562 -9.144531 6.0625 -10.28125 C 6.0625 -10.3125 6.050781 -10.34375 6.03125 -10.375 C 6.019531 -10.40625 6.015625 -10.4375 6.015625 -10.46875 C 5.148438 -9.476562 4.820312 -8.550781 5.03125 -7.6875 C 5.175781 -7.050781 5.484375 -6.769531 5.953125 -6.84375 C 6.421875 -6.925781 6.695312 -7.265625 6.78125 -7.859375 Z M 6.78125 -7.859375 "/></g></g></g><g clip-path="url(#id2)"><g fill="rgb(11.369324%, 39.99939%, 21.958923%)" fill-opacity="1"><g transform="translate(103.095864, 39.906289)"><g><path d="M 18.375 -18.0625 C 18.675781 -18.625 19.117188 -18.765625 19.703125 -18.484375 C 20.285156 -18.203125 20.515625 -17.757812 20.390625 -17.15625 C 20.179688 -15.90625 19.65625 -14.734375 18.8125 -13.640625 C 17.976562 -12.546875 17.007812 -11.832031 15.90625 -11.5 C 14.914062 -11.195312 13.957031 -11.265625 13.03125 -11.703125 C 12.101562 -12.140625 11.414062 -12.820312 10.96875 -13.75 C 10.457031 -14.820312 10.347656 -16.15625 10.640625 -17.75 C 10.703125 -17.988281 10.816406 -18.375 10.984375 -18.90625 C 11.148438 -19.445312 11.25 -19.835938 11.28125 -20.078125 C 11.3125 -20.316406 11.296875 -20.738281 11.234375 -21.34375 C 10.960938 -22.414062 10.539062 -22.96875 9.96875 -23 C 9.007812 -23.0625 8.25 -22.191406 7.6875 -20.390625 C 7.207031 -18.898438 6.984375 -17.375 7.015625 -15.8125 C 7.035156 -15.332031 7.078125 -14.804688 7.140625 -14.234375 C 7.203125 -13.671875 7.285156 -13.070312 7.390625 -12.4375 C 7.492188 -11.8125 7.5625 -11.289062 7.59375 -10.875 C 7.65625 -10.394531 7.503906 -9.972656 7.140625 -9.609375 C 6.785156 -9.253906 6.382812 -9.03125 5.9375 -8.9375 C 5.457031 -8.875 5.019531 -8.976562 4.625 -9.25 C 4.238281 -9.519531 3.96875 -9.878906 3.8125 -10.328125 C 2.46875 -14.585938 1.675781 -18.875 1.4375 -23.1875 C 1.195312 -27.039062 1.4375 -30.828125 2.15625 -34.546875 C 2.519531 -36.460938 3.164062 -37.8125 4.09375 -38.59375 C 4.78125 -39.15625 5.507812 -39.46875 6.28125 -39.53125 C 7.0625 -39.59375 7.828125 -39.398438 8.578125 -38.953125 C 9.179688 -38.554688 9.609375 -38 9.859375 -37.28125 C 10.117188 -36.5625 10.203125 -35.773438 10.109375 -34.921875 C 10.015625 -34.066406 9.878906 -33.285156 9.703125 -32.578125 C 9.523438 -31.878906 9.316406 -31.1875 9.078125 -30.5 C 8.117188 -27.957031 6.890625 -25.96875 5.390625 -24.53125 C 5.421875 -23.8125 5.46875 -23.109375 5.53125 -22.421875 C 5.976562 -23.171875 6.582031 -23.835938 7.34375 -24.421875 C 8.101562 -25.003906 8.875 -25.335938 9.65625 -25.421875 C 9.78125 -25.453125 9.882812 -25.46875 9.96875 -25.46875 C 10.8125 -25.46875 11.59375 -25.21875 12.3125 -24.71875 C 13.03125 -24.226562 13.566406 -23.609375 13.921875 -22.859375 C 14.554688 -21.546875 14.632812 -19.867188 14.15625 -17.828125 C 14.0625 -16.660156 14.101562 -15.867188 14.28125 -15.453125 L 14.375 -15.28125 C 14.40625 -15.21875 14.4375 -15.171875 14.46875 -15.140625 L 14.5625 -15.09375 C 14.644531 -15.0625 14.765625 -15.03125 14.921875 -15 C 14.921875 -15 14.960938 -14.988281 15.046875 -14.96875 C 15.140625 -14.957031 15.203125 -14.953125 15.234375 -14.953125 C 15.316406 -14.953125 15.507812 -14.96875 15.8125 -15 L 15.953125 -15 C 16.128906 -15.09375 16.320312 -15.226562 16.53125 -15.40625 C 17.101562 -15.851562 17.71875 -16.738281 18.375 -18.0625 Z M 6.25 -35.9375 C 6.09375 -35.582031 5.972656 -35.015625 5.890625 -34.234375 C 5.585938 -32.222656 5.40625 -30.15625 5.34375 -28.03125 C 6.238281 -29.59375 6.882812 -31.195312 7.28125 -32.84375 C 7.84375 -35.207031 7.84375 -36.566406 7.28125 -36.921875 C 7.25 -36.921875 7.203125 -36.90625 7.140625 -36.875 C 6.960938 -36.820312 6.8125 -36.75 6.6875 -36.65625 C 6.539062 -36.507812 6.394531 -36.269531 6.25 -35.9375 Z M 6.25 -35.9375 "/></g></g></g></g><g fill="rgb(11.369324%, 39.99939%, 21.958923%)" fill-opacity="1"><g transform="translate(119.128832, 39.906289)"><g/></g></g><g fill="rgb(11.369324%, 39.99939%, 21.958923%)" fill-opacity="1"><g transform="translate(129.772572, 39.906289)"><g><path d="M 31.453125 -19.5 C 32.015625 -19.375 32.300781 -18.96875 32.3125 -18.28125 C 32.332031 -17.59375 32.046875 -17.203125 31.453125 -17.109375 C 30.609375 -16.992188 29.394531 -16.921875 27.8125 -16.890625 C 28.945312 -13.953125 29.09375 -10.804688 28.25 -7.453125 C 27.863281 -5.773438 27.140625 -4.203125 26.078125 -2.734375 C 25.015625 -1.273438 23.765625 -0.09375 22.328125 0.8125 C 19.628906 2.519531 16.632812 3.101562 13.34375 2.5625 C 11.695312 2.289062 10.191406 1.628906 8.828125 0.578125 C 7.460938 -0.460938 6.316406 -1.765625 5.390625 -3.328125 C 4.191406 -5.359375 3.351562 -7.617188 2.875 -10.109375 C 2.394531 -12.597656 2.25 -15.046875 2.4375 -17.453125 C 2.632812 -19.859375 3.109375 -22.234375 3.859375 -24.578125 C 5.117188 -28.523438 6.769531 -31.625 8.8125 -33.875 C 11.207031 -36.476562 14.332031 -37.882812 18.1875 -38.09375 C 18.96875 -38.15625 19.734375 -38.144531 20.484375 -38.0625 C 21.234375 -37.988281 21.992188 -37.847656 22.765625 -37.640625 C 23.546875 -37.429688 24.265625 -37.101562 24.921875 -36.65625 C 25.585938 -36.207031 26.113281 -35.671875 26.5 -35.046875 C 27.21875 -33.992188 27.425781 -32.820312 27.125 -31.53125 C 26.832031 -30.25 26.085938 -29.367188 24.890625 -28.890625 C 24.347656 -28.648438 23.945312 -28.835938 23.6875 -29.453125 C 23.4375 -30.066406 23.582031 -30.492188 24.125 -30.734375 C 24.570312 -30.941406 24.867188 -31.285156 25.015625 -31.765625 C 25.171875 -32.242188 25.160156 -32.707031 24.984375 -33.15625 C 24.828125 -33.695312 24.472656 -34.113281 23.921875 -34.40625 C 23.367188 -34.707031 22.789062 -34.875 22.1875 -34.90625 C 19.40625 -35.050781 16.832031 -34.210938 14.46875 -32.390625 C 12.757812 -31.097656 11.335938 -29.078125 10.203125 -26.328125 C 9.179688 -23.960938 8.476562 -21.398438 8.09375 -18.640625 C 7.695312 -16.003906 7.753906 -13.367188 8.265625 -10.734375 C 8.773438 -8.097656 9.820312 -5.972656 11.40625 -4.359375 C 11.707031 -4.023438 11.976562 -3.769531 12.21875 -3.59375 C 12.21875 -3.5625 12.367188 -3.457031 12.671875 -3.28125 C 12.734375 -3.21875 12.957031 -3.097656 13.34375 -2.921875 C 13.4375 -2.859375 13.492188 -2.828125 13.515625 -2.828125 C 13.546875 -2.796875 13.609375 -2.765625 13.703125 -2.734375 C 14.210938 -2.585938 14.722656 -2.457031 15.234375 -2.34375 C 15.316406 -2.3125 15.375 -2.296875 15.40625 -2.296875 C 15.46875 -2.296875 15.546875 -2.296875 15.640625 -2.296875 C 16.140625 -2.265625 16.40625 -2.25 16.4375 -2.25 C 17.394531 -2.25 18.414062 -2.441406 19.5 -2.828125 C 20.332031 -3.097656 21.109375 -3.519531 21.828125 -4.09375 C 23.359375 -5.289062 24.5 -7.191406 25.25 -9.796875 C 25.789062 -11.796875 25.832031 -14.113281 25.375 -16.75 C 24.875 -16.726562 23.984375 -16.65625 22.703125 -16.53125 C 21.429688 -16.414062 20.453125 -16.34375 19.765625 -16.3125 C 19.253906 -16.3125 18.867188 -16.507812 18.609375 -16.90625 C 18.359375 -17.3125 18.300781 -17.742188 18.4375 -18.203125 C 18.570312 -18.671875 18.878906 -18.953125 19.359375 -19.046875 C 20.859375 -19.316406 22.878906 -19.507812 25.421875 -19.625 C 28.242188 -19.75 30.253906 -19.707031 31.453125 -19.5 Z M 31.453125 -19.5 "/></g></g></g><g fill="rgb(11.369324%, 39.99939%, 21.958923%)" fill-opacity="1"><g transform="translate(161.883439, 39.906289)"><g><path d="M 9.203125 -24.9375 C 10.429688 -25.082031 11.472656 -24.726562 12.328125 -23.875 C 13.179688 -23.019531 13.566406 -21.976562 13.484375 -20.75 C 13.359375 -19.3125 12.800781 -18.3125 11.8125 -17.75 C 11.15625 -17.320312 10.472656 -17.222656 9.765625 -17.453125 C 9.066406 -17.679688 8.613281 -18.15625 8.40625 -18.875 C 8.21875 -19.5 8.398438 -19.945312 8.953125 -20.21875 C 9.515625 -20.488281 10.003906 -20.410156 10.421875 -19.984375 C 10.597656 -20.078125 10.703125 -20.15625 10.734375 -20.21875 C 10.910156 -20.363281 11.03125 -20.601562 11.09375 -20.9375 C 11.21875 -21.53125 11.054688 -21.992188 10.609375 -22.328125 C 10.066406 -22.566406 9.539062 -22.59375 9.03125 -22.40625 C 8.519531 -22.226562 8.054688 -21.945312 7.640625 -21.5625 C 6.921875 -20.875 6.472656 -19.765625 6.296875 -18.234375 C 6.296875 -18.054688 6.296875 -17.9375 6.296875 -17.875 C 6.378906 -16.914062 6.4375 -15.597656 6.46875 -13.921875 C 6.53125 -13.359375 6.535156 -12.671875 6.484375 -11.859375 C 6.441406 -11.046875 6.300781 -10.390625 6.0625 -9.890625 C 5.789062 -9.429688 5.414062 -9.21875 4.9375 -9.25 C 4.457031 -9.28125 4.082031 -9.503906 3.8125 -9.921875 C 3.789062 -9.921875 3.78125 -9.910156 3.78125 -9.890625 C 3.625 -10.128906 3.492188 -10.425781 3.390625 -10.78125 C 3.285156 -11.144531 3.21875 -11.421875 3.1875 -11.609375 C 3.15625 -11.804688 3.125 -12.164062 3.09375 -12.6875 C 3.070312 -13.21875 3.0625 -13.507812 3.0625 -13.5625 C 3.03125 -14.039062 2.96875 -14.722656 2.875 -15.609375 C 2.78125 -16.492188 2.734375 -17.023438 2.734375 -17.203125 C 2.523438 -19.453125 2.242188 -21.804688 1.890625 -24.265625 C 1.828125 -24.796875 2.007812 -25.210938 2.4375 -25.515625 C 2.875 -25.816406 3.304688 -25.757812 3.734375 -25.34375 C 4.421875 -24.644531 4.972656 -23.726562 5.390625 -22.59375 C 6.410156 -23.945312 7.679688 -24.726562 9.203125 -24.9375 Z M 10.46875 -19.984375 C 10.53125 -19.929688 10.578125 -19.875 10.609375 -19.8125 C 10.546875 -19.875 10.5 -19.929688 10.46875 -19.984375 Z M 10.46875 -19.984375 "/></g></g></g><g fill="rgb(11.369324%, 39.99939%, 21.958923%)" fill-opacity="1"><g transform="translate(175.356533, 39.906289)"><g><path d="M 16.125 -17.4375 C 16.425781 -17.820312 16.816406 -17.867188 17.296875 -17.578125 C 17.773438 -17.296875 17.925781 -16.929688 17.75 -16.484375 C 17.082031 -14.898438 16.078125 -13.546875 14.734375 -12.421875 C 13.390625 -11.296875 11.894531 -10.582031 10.25 -10.28125 C 8.539062 -10.019531 7.160156 -10.066406 6.109375 -10.421875 C 4.492188 -11.046875 3.28125 -12.125 2.46875 -13.65625 C 1.925781 -14.738281 1.601562 -15.90625 1.5 -17.15625 C 1.394531 -18.414062 1.5625 -19.660156 2 -20.890625 C 2.4375 -22.117188 3.148438 -23.078125 4.140625 -23.765625 C 5.628906 -24.816406 7.125 -25.144531 8.625 -24.75 C 10.1875 -24.332031 10.953125 -23.179688 10.921875 -21.296875 C 10.921875 -19.796875 10.492188 -18.5 9.640625 -17.40625 C 8.785156 -16.3125 7.65625 -15.628906 6.25 -15.359375 C 6.632812 -14.671875 7.175781 -14.242188 7.875 -14.078125 C 8.582031 -13.921875 9.429688 -13.882812 10.421875 -13.96875 C 11.523438 -14.09375 12.378906 -14.363281 12.984375 -14.78125 C 14.535156 -15.882812 15.582031 -16.769531 16.125 -17.4375 Z M 7.765625 -21.828125 C 6.898438 -21.503906 6.285156 -20.867188 5.921875 -19.921875 C 5.566406 -18.984375 5.476562 -18.003906 5.65625 -16.984375 C 6.945312 -17.398438 7.878906 -18.148438 8.453125 -19.234375 C 8.835938 -19.921875 8.984375 -20.609375 8.890625 -21.296875 C 8.859375 -21.679688 8.753906 -21.910156 8.578125 -21.984375 C 8.398438 -22.066406 8.128906 -22.015625 7.765625 -21.828125 Z M 7.765625 -21.828125 "/></g></g></g><g fill="rgb(11.369324%, 39.99939%, 21.958923%)" fill-opacity="1"><g transform="translate(188.829628, 39.906289)"><g><path d="M 16.125 -17.4375 C 16.425781 -17.820312 16.816406 -17.867188 17.296875 -17.578125 C 17.773438 -17.296875 17.925781 -16.929688 17.75 -16.484375 C 17.082031 -14.898438 16.078125 -13.546875 14.734375 -12.421875 C 13.390625 -11.296875 11.894531 -10.582031 10.25 -10.28125 C 8.539062 -10.019531 7.160156 -10.066406 6.109375 -10.421875 C 4.492188 -11.046875 3.28125 -12.125 2.46875 -13.65625 C 1.925781 -14.738281 1.601562 -15.90625 1.5 -17.15625 C 1.394531 -18.414062 1.5625 -19.660156 2 -20.890625 C 2.4375 -22.117188 3.148438 -23.078125 4.140625 -23.765625 C 5.628906 -24.816406 7.125 -25.144531 8.625 -24.75 C 10.1875 -24.332031 10.953125 -23.179688 10.921875 -21.296875 C 10.921875 -19.796875 10.492188 -18.5 9.640625 -17.40625 C 8.785156 -16.3125 7.65625 -15.628906 6.25 -15.359375 C 6.632812 -14.671875 7.175781 -14.242188 7.875 -14.078125 C 8.582031 -13.921875 9.429688 -13.882812 10.421875 -13.96875 C 11.523438 -14.09375 12.378906 -14.363281 12.984375 -14.78125 C 14.535156 -15.882812 15.582031 -16.769531 16.125 -17.4375 Z M 7.765625 -21.828125 C 6.898438 -21.503906 6.285156 -20.867188 5.921875 -19.921875 C 5.566406 -18.984375 5.476562 -18.003906 5.65625 -16.984375 C 6.945312 -17.398438 7.878906 -18.148438 8.453125 -19.234375 C 8.835938 -19.921875 8.984375 -20.609375 8.890625 -21.296875 C 8.859375 -21.679688 8.753906 -21.910156 8.578125 -21.984375 C 8.398438 -22.066406 8.128906 -22.015625 7.765625 -21.828125 Z M 7.765625 -21.828125 "/></g></g></g><g fill="rgb(11.369324%, 39.99939%, 21.958923%)" fill-opacity="1"><g transform="translate(202.302723, 39.906289)"><g><path d="M 19.8125 -17.078125 C 20.082031 -17.398438 20.441406 -17.429688 20.890625 -17.171875 C 21.335938 -16.921875 21.488281 -16.585938 21.34375 -16.171875 C 20.976562 -15.273438 20.710938 -14.644531 20.546875 -14.28125 C 20.390625 -13.925781 20.113281 -13.394531 19.71875 -12.6875 C 19.332031 -11.988281 18.914062 -11.410156 18.46875 -10.953125 C 18.019531 -10.503906 17.507812 -10.148438 16.9375 -9.890625 C 15.59375 -9.253906 14.289062 -9.257812 13.03125 -9.90625 C 11.769531 -10.550781 11.019531 -11.609375 10.78125 -13.078125 C 10.71875 -13.398438 10.671875 -13.765625 10.640625 -14.171875 C 10.617188 -14.578125 10.613281 -14.914062 10.625 -15.1875 C 10.632812 -15.457031 10.644531 -15.832031 10.65625 -16.3125 C 10.675781 -16.789062 10.6875 -17.132812 10.6875 -17.34375 C 10.75 -17.882812 10.753906 -18.550781 10.703125 -19.34375 C 10.660156 -20.132812 10.507812 -20.785156 10.25 -21.296875 C 10.007812 -21.710938 9.710938 -21.976562 9.359375 -22.09375 C 9.015625 -22.21875 8.660156 -22.210938 8.296875 -22.078125 C 7.941406 -21.941406 7.601562 -21.695312 7.28125 -21.34375 C 6.5 -20.625 5.988281 -19.800781 5.75 -18.875 C 5.8125 -18.125 5.84375 -17.628906 5.84375 -17.390625 C 5.875 -16.960938 5.914062 -16.425781 5.96875 -15.78125 C 6.03125 -15.144531 6.082031 -14.59375 6.125 -14.125 C 6.175781 -13.664062 6.21875 -13.132812 6.25 -12.53125 C 6.28125 -11.9375 6.28125 -11.398438 6.25 -10.921875 C 6.21875 -10.316406 5.96875 -9.863281 5.5 -9.5625 C 5.039062 -9.269531 4.546875 -9.203125 4.015625 -9.359375 C 3.492188 -9.523438 3.160156 -9.894531 3.015625 -10.46875 C 2.648438 -11.78125 2.410156 -14.023438 2.296875 -17.203125 C 2.171875 -20.109375 2.304688 -22.328125 2.703125 -23.859375 C 2.816406 -24.453125 3.21875 -24.75 3.90625 -24.75 C 4.59375 -24.75 5.015625 -24.453125 5.171875 -23.859375 C 5.222656 -23.492188 5.296875 -23.070312 5.390625 -22.59375 C 6.078125 -23.3125 6.8125 -23.835938 7.59375 -24.171875 C 8.9375 -24.710938 10.175781 -24.632812 11.3125 -23.9375 C 12.457031 -23.25 13.269531 -22.21875 13.75 -20.84375 C 14.101562 -19.789062 14.28125 -18.28125 14.28125 -16.3125 C 14.28125 -16.25 14.265625 -16.003906 14.234375 -15.578125 C 14.210938 -15.160156 14.203125 -14.8125 14.203125 -14.53125 C 14.203125 -14.25 14.242188 -13.945312 14.328125 -13.625 C 14.421875 -13.3125 14.554688 -13.097656 14.734375 -12.984375 C 15.335938 -12.535156 16.222656 -12.878906 17.390625 -14.015625 C 17.566406 -14.191406 17.742188 -14.378906 17.921875 -14.578125 C 18.097656 -14.773438 18.257812 -14.976562 18.40625 -15.1875 C 18.5625 -15.394531 18.710938 -15.59375 18.859375 -15.78125 C 19.015625 -15.976562 19.179688 -16.195312 19.359375 -16.4375 C 19.535156 -16.675781 19.6875 -16.890625 19.8125 -17.078125 Z M 19.8125 -17.078125 "/></g></g></g><g clip-path="url(#id3)"><path fill="rgb(152, 75, 30)" d="M 156.429688 72.984375 C 155.84375 73.511719 155.234375 73.1875 155.273438 72.445312 C 155.320312 71.65625 156.160156 70.84375 156.660156 70.285156 C 157.226562 69.671875 157.84375 69.105469 158.457031 68.554688 C 158.664062 68.363281 158.871094 68.128906 159.074219 67.902344 C 158.890625 68.398438 158.761719 68.953125 158.601562 69.355469 C 158.09375 70.609375 157.496094 72.011719 156.429688 72.984375 Z M 158.625 65.8125 C 158.042969 65.261719 157.484375 64.707031 156.992188 64.089844 C 156.480469 63.457031 156.027344 62.726562 155.847656 61.917969 C 155.738281 61.417969 155.96875 60.851562 156.332031 60.875 C 156.203125 60.957031 156.09375 61.046875 156.039062 61.136719 C 155.753906 61.609375 156.496094 61.476562 156.964844 61.394531 C 157.398438 61.960938 157.734375 62.710938 158.027344 63.441406 C 157.992188 63.574219 158.027344 63.660156 158.128906 63.699219 C 158.253906 64.023438 158.375 64.339844 158.488281 64.632812 C 158.664062 65.066406 158.804688 65.683594 159.023438 66.226562 C 158.886719 66.082031 158.753906 65.9375 158.625 65.8125 Z M 151.839844 70.96875 C 151.140625 71.546875 149.847656 72.425781 148.75 72.300781 C 148.199219 72.242188 149.402344 71.109375 149.488281 71.019531 C 150.023438 70.5625 150.625 70.160156 151.195312 69.765625 C 152.179688 69.070312 153.195312 68.507812 154.203125 67.933594 C 153.539062 69.03125 152.925781 70.089844 151.839844 70.96875 Z M 152.136719 64.527344 C 152.054688 64.40625 151.566406 63.574219 151.253906 62.765625 C 150.933594 61.957031 150.765625 61.1875 151.054688 61.203125 C 151.628906 61.230469 152.273438 62.539062 152.644531 63.042969 C 153.425781 64.175781 153.796875 65.449219 154.296875 66.742188 C 153.484375 66.074219 152.730469 65.371094 152.136719 64.527344 Z M 145.535156 69.9375 C 145.0625 70.257812 144.296875 70.5 143.449219 70.503906 C 142.605469 70.515625 141.679688 70.273438 141.011719 69.769531 C 140.554688 69.414062 140.960938 69.234375 141.484375 69.097656 C 142.007812 68.964844 142.640625 68.894531 142.746094 68.871094 C 143.492188 68.746094 144.230469 68.640625 144.925781 68.460938 C 145.78125 68.265625 146.835938 67.902344 147.457031 67.285156 C 147.222656 68.351562 146.511719 69.273438 145.535156 69.9375 Z M 146.488281 60.210938 C 146.585938 59.738281 146.808594 59.816406 147.039062 60.015625 C 147.257812 60.226562 147.539062 60.550781 147.566406 60.605469 C 147.839844 61.019531 148.03125 61.46875 148.160156 62.066406 C 148.363281 63.121094 148.414062 64.429688 147.984375 65.523438 C 147.855469 64.730469 147.390625 63.941406 147.140625 63.304688 C 146.710938 62.300781 146.285156 61.277344 146.488281 60.210938 Z M 142.160156 64.082031 C 141.351562 63.777344 140.546875 63.367188 140.09375 62.828125 C 139.617188 62.316406 139.488281 61.726562 139.871094 61.230469 C 140.496094 60.480469 141.269531 61.828125 142.523438 63.078125 C 143.050781 63.644531 143.667969 64.183594 144.238281 64.632812 C 143.605469 64.480469 142.882812 64.335938 142.160156 64.082031 Z M 75.449219 70.746094 C 74.957031 71.46875 74.242188 71.261719 74.101562 70.433594 C 73.953125 69.558594 74.644531 68.449219 75.054688 67.714844 C 75.519531 66.902344 76.066406 66.140625 76.613281 65.398438 C 76.800781 65.148438 76.972656 64.851562 77.152344 64.554688 C 77.054688 65.144531 77.039062 65.78125 76.953125 66.261719 C 76.679688 67.75 76.347656 69.425781 75.449219 70.746094 Z M 76.5 62.554688 C 76.53125 62.542969 76.5625 62.535156 76.597656 62.523438 C 76.636719 62.585938 76.675781 62.648438 76.714844 62.710938 C 76.644531 62.660156 76.570312 62.609375 76.5 62.554688 Z M 73.957031 60.800781 C 73.589844 60.507812 73.230469 60.191406 72.914062 59.84375 C 73.246094 59.890625 73.59375 59.894531 73.722656 59.890625 C 74.144531 59.871094 74.515625 59.800781 74.863281 59.679688 C 75.1875 60.15625 75.484375 60.636719 75.765625 61.058594 C 75.875 61.226562 75.988281 61.421875 76.101562 61.632812 C 75.886719 61.722656 75.71875 61.835938 75.636719 61.984375 C 75.058594 61.609375 74.492188 61.226562 73.957031 60.800781 Z M 72.871094 57.539062 C 73.40625 57.863281 73.886719 58.375 74.328125 58.941406 C 73.804688 58.941406 72.84375 58.953125 72.390625 59.15625 C 72.292969 59.011719 72.199219 58.863281 72.121094 58.703125 C 71.796875 58.035156 72.101562 57.070312 72.871094 57.539062 Z M 67.339844 72.007812 C 66.777344 72.113281 67.632812 70.511719 67.699219 70.390625 C 68.097656 69.734375 68.605469 69.128906 69.09375 68.546875 C 69.925781 67.507812 70.863281 66.601562 71.8125 65.722656 C 71.371094 67.089844 70.992188 68.40625 70.105469 69.679688 C 69.542969 70.535156 68.449219 71.792969 67.339844 72.007812 Z M 67.039062 60.898438 C 66.40625 60.117188 65.921875 59.34375 66.28125 59.265625 C 66.996094 59.097656 68.167969 60.363281 68.730469 60.804688 C 69.964844 61.789062 70.71875 63.089844 71.605469 64.386719 C 70.535156 63.855469 69.511719 63.300781 68.59375 62.570312 C 68.464844 62.460938 67.671875 61.679688 67.039062 60.898438 Z M 63.46875 70.582031 C 63.140625 71.101562 62.519531 71.652344 61.785156 72.046875 C 61.417969 72.238281 61.027344 72.414062 60.628906 72.484375 C 60.226562 72.546875 59.824219 72.546875 59.453125 72.464844 C 58.449219 72.234375 60.386719 70.84375 60.542969 70.707031 C 61.144531 70.246094 61.761719 69.75 62.351562 69.28125 C 63.074219 68.695312 64 67.933594 64.414062 67.058594 C 64.558594 68.28125 64.15625 69.507812 63.46875 70.582031 Z M 62.480469 62.949219 C 62.011719 62.511719 61.5 62.105469 61.039062 61.65625 C 60.585938 61.171875 60.183594 60.65625 59.921875 60.054688 C 59.460938 58.988281 61.4375 59.957031 61.617188 59.976562 C 62.214844 60.269531 62.6875 60.648438 63.109375 61.234375 C 63.839844 62.269531 64.375 63.660156 64.324219 64.984375 C 63.886719 64.179688 63.066406 63.5 62.480469 62.949219 Z M 57.730469 66.28125 C 56.8125 66.574219 55.910156 66.640625 55.195312 66.5625 C 54.484375 66.46875 53.972656 66.15625 53.867188 65.457031 C 53.71875 64.375 55.484375 64.675781 57.449219 65.136719 C 58.316406 65.285156 59.21875 65.484375 60.015625 65.664062 C 59.308594 65.824219 58.527344 66.0625 57.730469 66.28125 Z M 166.050781 66.796875 C 165.683594 66.777344 165.308594 66.765625 164.9375 66.757812 C 164.6875 65.789062 164.308594 64.832031 163.832031 63.914062 C 163.828125 63.902344 163.820312 63.894531 163.816406 63.882812 C 163.753906 63.425781 163.769531 62.96875 163.753906 62.457031 C 163.75 62.390625 163.644531 62.351562 163.621094 62.421875 C 163.507812 62.699219 163.46875 63.003906 163.472656 63.308594 C 163.136719 62.730469 162.78125 62.171875 162.402344 61.632812 C 162.402344 61.621094 162.398438 61.609375 162.386719 61.601562 C 162.382812 61.597656 162.378906 61.597656 162.375 61.59375 C 162.21875 61.371094 162.066406 61.140625 161.910156 60.925781 C 161.863281 60.867188 161.8125 60.8125 161.765625 60.75 C 161.496094 60.238281 161.292969 59.730469 161.152344 59.109375 C 161.140625 59.042969 161.027344 59.03125 161.015625 59.101562 C 160.96875 59.386719 161.015625 59.683594 161.109375 59.972656 C 160.109375 58.867188 158.949219 57.902344 157.683594 57.125 C 157.542969 56.882812 157.433594 56.613281 157.324219 56.34375 C 157.300781 56.28125 157.210938 56.289062 157.210938 56.355469 C 157.210938 56.550781 157.28125 56.753906 157.375 56.945312 C 156.972656 56.710938 156.5625 56.488281 156.140625 56.292969 C 155.976562 56.214844 155.859375 56.464844 156.019531 56.542969 C 156.46875 56.753906 156.898438 57 157.316406 57.261719 C 156.851562 57.203125 156.425781 57.308594 156.171875 57.746094 C 156.144531 57.789062 156.203125 57.839844 156.234375 57.796875 C 156.609375 57.363281 157.042969 57.347656 157.488281 57.476562 C 157.652344 57.542969 157.820312 57.628906 157.984375 57.714844 C 159.210938 58.597656 160.289062 59.683594 161.222656 60.859375 C 160.738281 60.648438 160.222656 60.53125 159.699219 60.554688 C 159.632812 60.558594 159.625 60.65625 159.691406 60.65625 C 160.371094 60.667969 160.945312 60.910156 161.515625 61.222656 C 162.050781 61.945312 162.519531 62.742188 162.957031 63.5625 C 162.519531 63.3125 162.058594 63.128906 161.546875 63.085938 C 161.492188 63.082031 161.46875 63.164062 161.523438 63.171875 C 162.085938 63.222656 162.574219 63.441406 163.042969 63.726562 C 163.125 63.882812 163.207031 64.035156 163.285156 64.1875 C 163.71875 65.050781 164.132812 65.914062 164.574219 66.753906 C 163.046875 66.738281 161.488281 66.820312 159.941406 66.882812 C 159.941406 66.511719 159.78125 66.148438 159.648438 65.804688 C 159.378906 65.09375 159.089844 64.394531 158.792969 63.699219 C 158.972656 63.671875 159.167969 63.632812 159.375 63.585938 C 160.222656 63.386719 161.175781 63.132812 161.335938 63.089844 C 161.078125 62.980469 160.300781 62.792969 159.589844 62.785156 C 159.175781 62.78125 158.785156 62.84375 158.492188 62.976562 C 158.28125 62.480469 158 61.8125 157.65625 61.25 C 158.273438 61.085938 158.847656 60.855469 159.480469 60.535156 C 159.117188 60.347656 158.613281 60.382812 158.203125 60.355469 C 158.007812 60.359375 157.546875 60.421875 157.113281 60.546875 C 156.847656 60.292969 156.5625 60.136719 156.246094 60.15625 C 154.890625 60.226562 155.28125 62.324219 155.695312 63.144531 C 156.167969 64.101562 156.925781 64.925781 157.699219 65.671875 C 158.210938 66.164062 158.777344 66.492188 159.347656 66.859375 C 159.359375 66.875 159.367188 66.890625 159.375 66.90625 C 158.167969 66.949219 156.964844 66.972656 155.796875 66.917969 C 155.503906 66.902344 155.214844 66.875 154.921875 66.859375 C 154.660156 65.210938 153.757812 63.59375 152.878906 62.34375 C 152.691406 62.089844 152.324219 61.523438 151.949219 61.097656 C 151.566406 60.667969 151.167969 60.382812 150.800781 60.664062 C 149.867188 61.359375 150.636719 63.070312 151.074219 63.804688 C 151.585938 64.773438 152.4375 65.988281 153.480469 66.738281 C 151.839844 66.574219 150.210938 66.316406 148.617188 65.910156 C 148.832031 65.519531 148.933594 65.050781 148.96875 64.558594 C 149.023438 63.695312 148.898438 62.777344 148.8125 62.132812 C 148.589844 60.820312 147.960938 59.734375 147.355469 59.261719 C 147.125 59.105469 146.757812 59.167969 146.398438 59.539062 C 145.992188 59.976562 145.90625 60.398438 145.882812 60.914062 C 145.804688 62.519531 146.675781 63.851562 147.285156 65.472656 C 146.785156 65.296875 146.269531 65.136719 145.828125 65.109375 C 145.035156 64.117188 143.722656 63.304688 142.992188 62.460938 C 142.617188 62.09375 142.203125 61.515625 141.710938 61.082031 C 141.667969 61.042969 141.625 61.007812 141.578125 60.96875 C 141.378906 60.738281 141.175781 60.503906 140.976562 60.269531 C 140.824219 59.84375 140.773438 59.390625 140.695312 58.917969 C 140.6875 58.859375 140.582031 58.832031 140.5625 58.90625 C 140.484375 59.175781 140.484375 59.460938 140.539062 59.746094 C 139.925781 59.023438 139.332031 58.292969 138.8125 57.535156 C 138.765625 57.46875 138.726562 57.398438 138.683594 57.332031 C 138.449219 56.808594 138.324219 56.28125 138.351562 55.667969 C 138.351562 55.605469 138.25 55.570312 138.21875 55.636719 C 138.101562 55.886719 138.085938 56.171875 138.121094 56.464844 C 137.683594 55.769531 137.261719 55.066406 136.875 54.335938 C 136.582031 53.746094 136.3125 53.140625 136.085938 52.519531 C 136.125 52.242188 136.21875 51.972656 136.339844 51.71875 C 136.367188 51.664062 136.300781 51.609375 136.25 51.65625 C 136.101562 51.785156 136.019531 51.972656 135.964844 52.171875 C 135.816406 51.738281 135.679688 51.296875 135.578125 50.84375 C 135.550781 50.667969 135.273438 50.71875 135.304688 50.902344 C 135.417969 51.414062 135.5625 51.914062 135.722656 52.414062 C 135.402344 52.039062 135.007812 51.789062 134.5 51.890625 C 134.449219 51.902344 134.460938 51.992188 134.515625 51.988281 C 135.101562 51.972656 135.421875 52.292969 135.703125 52.6875 C 135.816406 52.859375 135.910156 53.050781 136.003906 53.238281 C 136.015625 53.265625 136.019531 53.300781 136.027344 53.328125 C 136.035156 53.335938 136.042969 53.339844 136.050781 53.347656 C 136.199219 53.734375 136.351562 54.125 136.523438 54.503906 C 137 55.511719 137.546875 56.488281 138.15625 57.417969 C 138.113281 57.394531 138.074219 57.367188 138.035156 57.34375 C 137.578125 57.105469 137.101562 56.910156 136.601562 56.777344 C 136.53125 56.761719 136.507812 56.863281 136.574219 56.886719 C 137.257812 57.101562 137.824219 57.449219 138.390625 57.800781 C 138.390625 57.804688 138.394531 57.808594 138.398438 57.8125 C 138.921875 58.582031 139.480469 59.375 140.082031 60.136719 C 139.59375 59.953125 139.089844 59.816406 138.550781 59.785156 C 138.492188 59.78125 138.480469 59.871094 138.542969 59.875 C 139.128906 59.917969 139.671875 60.085938 140.207031 60.292969 C 140.230469 60.320312 140.253906 60.347656 140.273438 60.375 C 140.179688 60.371094 140.085938 60.359375 139.984375 60.371094 C 139.195312 60.46875 138.941406 60.996094 139.019531 61.695312 C 139.058594 62.039062 139.210938 62.390625 139.390625 62.726562 C 139.582031 63.046875 139.820312 63.328125 140.039062 63.53125 C 140.222656 63.6875 140.410156 63.828125 140.605469 63.960938 C 138.910156 63.667969 137.179688 63.503906 135.449219 63.371094 C 135.449219 63.015625 135.335938 62.636719 135.265625 62.316406 C 135.023438 61.210938 134.75 60.109375 134.453125 59.019531 C 134.273438 58.382812 134.027344 57.347656 133.644531 56.449219 C 133.71875 56.480469 133.78125 56.507812 133.820312 56.523438 C 134.726562 56.863281 135.488281 56.867188 136.375 56.6875 C 136.007812 56.386719 135.511719 56.183594 135.078125 55.933594 C 134.699219 55.804688 133.523438 55.21875 132.859375 55.171875 C 132.589844 54.894531 132.285156 54.710938 131.925781 54.683594 C 130.125 54.53125 130.191406 57.230469 130.601562 58.425781 C 131.035156 59.691406 131.84375 60.820312 132.664062 61.886719 C 133 62.308594 133.363281 62.710938 133.746094 63.097656 C 133.804688 63.160156 133.875 63.210938 133.941406 63.261719 C 132.648438 63.167969 131.363281 63.074219 130.101562 62.929688 C 129.816406 62.898438 129.535156 62.847656 129.253906 62.808594 C 129.269531 60.726562 128.355469 58.550781 127.453125 56.871094 C 127.234375 56.5 126.867188 55.710938 126.4375 55.121094 C 126.222656 54.824219 125.992188 54.574219 125.742188 54.445312 C 125.503906 54.304688 125.257812 54.273438 124.980469 54.433594 C 124.324219 54.816406 124.144531 55.558594 124.210938 56.355469 C 124.273438 57.144531 124.578125 58 124.800781 58.5 C 125.285156 59.742188 126.144531 61.402344 127.316406 62.480469 C 126.011719 62.226562 124.722656 61.914062 123.449219 61.527344 C 122.828125 61.328125 122.210938 61.109375 121.597656 60.875 C 121.980469 60.417969 122.195312 59.789062 122.3125 59.132812 C 122.5 58.046875 122.484375 56.820312 122.449219 56.019531 C 122.328125 54.316406 121.597656 52.859375 120.738281 52.097656 C 120.414062 51.816406 119.742188 51.875 119.265625 52.316406 C 118.695312 52.839844 118.511719 53.464844 118.503906 54.144531 C 118.484375 54.644531 118.542969 55.148438 118.644531 55.65625 C 118.695312 55.914062 118.753906 56.171875 118.820312 56.425781 C 118.902344 56.671875 118.988281 56.914062 119.070312 57.152344 C 119.296875 57.796875 119.480469 58.464844 119.652344 59.148438 C 119.75 59.492188 119.84375 59.839844 119.933594 60.199219 C 119.441406 59.984375 118.957031 59.765625 118.472656 59.527344 C 117.753906 58.066406 115.933594 56.800781 114.980469 55.707031 C 114.722656 55.46875 114.484375 55.132812 114.203125 54.820312 C 113.921875 54.5 113.597656 54.203125 113.261719 53.9375 C 112.648438 53.363281 111.882812 52.996094 110.957031 53.222656 C 109.941406 53.464844 109.671875 54.179688 109.84375 55.03125 C 109.894531 55.308594 110 55.589844 110.125 55.867188 C 109.96875 56.167969 109.828125 56.5 109.71875 56.855469 C 109.332031 58.039062 109.308594 59.414062 109.367188 59.910156 C 109.496094 59.667969 110.289062 58.320312 111.023438 57.09375 C 111.085938 57.152344 111.152344 57.222656 111.210938 57.269531 C 111.519531 57.515625 111.828125 57.738281 112.140625 57.953125 C 112.460938 58.160156 112.816406 58.308594 113.152344 58.472656 C 113.835938 58.785156 114.496094 59.089844 115.210938 59.273438 C 115.714844 59.421875 116.230469 59.621094 116.738281 59.789062 C 116.992188 59.851562 117.25 59.902344 117.5 59.941406 C 118.148438 60.445312 118.832031 60.914062 119.558594 61.3125 C 119.230469 61.464844 118.894531 61.605469 118.550781 61.730469 C 117.949219 61.9375 117.339844 62.0625 116.703125 62.183594 C 115.417969 62.457031 114.089844 62.507812 112.652344 62.628906 C 112.164062 62.683594 111.640625 62.835938 111.210938 63.066406 C 110.8125 62.820312 110.425781 62.554688 110.050781 62.273438 C 109.714844 61.726562 109.542969 61.097656 109.375 60.460938 C 109.347656 60.378906 109.199219 60.367188 109.179688 60.472656 C 109.105469 60.867188 109.160156 61.277344 109.300781 61.667969 C 108.265625 60.785156 107.335938 59.777344 106.558594 58.691406 C 106.484375 58.59375 106.421875 58.488281 106.351562 58.386719 C 106.007812 57.640625 105.84375 56.871094 105.890625 56.003906 C 105.898438 55.910156 105.746094 55.859375 105.703125 55.953125 C 105.519531 56.316406 105.488281 56.734375 105.542969 57.160156 C 104.402344 55.335938 103.433594 53.382812 102.6875 51.359375 C 102.753906 50.953125 102.898438 50.558594 103.058594 50.179688 C 103.089844 50.097656 102.992188 50.019531 102.921875 50.089844 C 102.722656 50.28125 102.589844 50.546875 102.507812 50.839844 C 102.289062 50.207031 102.082031 49.574219 101.90625 48.933594 C 101.839844 48.679688 101.445312 48.78125 101.511719 49.039062 C 101.703125 49.75 101.917969 50.457031 102.148438 51.164062 C 101.683594 50.648438 101.101562 50.324219 100.378906 50.496094 C 100.304688 50.515625 100.328125 50.644531 100.40625 50.636719 C 101.558594 50.5625 102.066406 51.402344 102.523438 52.28125 C 102.546875 52.367188 102.578125 52.449219 102.613281 52.523438 C 102.613281 52.527344 102.617188 52.527344 102.617188 52.53125 C 103.378906 54.625 104.335938 56.65625 105.578125 58.53125 C 104.867188 58.136719 104.113281 57.800781 103.320312 57.578125 C 103.21875 57.546875 103.179688 57.699219 103.28125 57.734375 C 104.28125 58.074219 105.113281 58.589844 105.953125 59.097656 C 105.957031 59.101562 105.960938 59.105469 105.960938 59.109375 C 106.761719 60.230469 107.667969 61.355469 108.746094 62.332031 C 107.984375 62.167969 107.203125 62.042969 106.402344 62.039062 C 106.3125 62.039062 106.3125 62.175781 106.402344 62.175781 C 107.285156 62.191406 108.140625 62.363281 108.984375 62.535156 C 109.183594 62.707031 109.375 62.886719 109.585938 63.050781 C 109.878906 63.277344 110.191406 63.488281 110.511719 63.683594 C 110.390625 63.902344 110.347656 64.15625 110.429688 64.449219 C 110.433594 64.457031 110.4375 64.464844 110.441406 64.472656 C 108.664062 64.429688 106.890625 64.398438 105.089844 64.328125 C 104.75 64.304688 104.40625 64.273438 104.066406 64.246094 C 104.0625 63.882812 103.953125 63.5 103.890625 63.179688 C 103.863281 63.03125 103.832031 62.882812 103.804688 62.734375 C 104.90625 62.515625 105.886719 62.144531 106.070312 62.070312 C 105.667969 61.960938 104.617188 61.691406 103.550781 61.46875 C 103.441406 60.929688 103.335938 60.386719 103.226562 59.851562 C 103.113281 59.253906 102.964844 58.320312 102.738281 57.46875 C 102.824219 57.457031 102.90625 57.445312 102.988281 57.429688 C 102.890625 57.34375 102.777344 57.265625 102.667969 57.1875 C 102.394531 56.300781 102.042969 55.472656 101.386719 55.402344 C 100.898438 55.316406 100.527344 55.527344 100.257812 55.886719 C 99.292969 55.457031 97.9375 54.898438 97.441406 55.175781 C 96.570312 55.75 98.789062 56.910156 99.269531 57.085938 C 99.429688 57.152344 99.585938 57.207031 99.738281 57.257812 C 99.625 57.902344 99.632812 58.582031 99.734375 59.058594 C 99.910156 59.9375 100.273438 60.78125 100.71875 61.582031 C 100.664062 61.65625 100.625 61.738281 100.601562 61.839844 C 100.476562 62.398438 100.875 62.703125 101.488281 62.832031 C 101.757812 63.214844 102.050781 63.585938 102.375 63.949219 C 102.421875 64.007812 102.484375 64.054688 102.542969 64.105469 C 101.265625 63.972656 99.992188 63.796875 98.75 63.53125 C 98.46875 63.46875 98.191406 63.386719 97.914062 63.3125 C 98.03125 62.351562 97.96875 61.351562 97.800781 60.386719 C 97.601562 59.265625 97.304688 58.101562 96.960938 57.160156 C 96.8125 56.769531 96.574219 55.925781 96.246094 55.277344 C 96.082031 54.949219 95.890625 54.675781 95.667969 54.503906 C 95.453125 54.324219 95.199219 54.257812 94.898438 54.375 C 94.171875 54.652344 93.882812 55.375 93.832031 56.179688 C 93.785156 56.976562 93.964844 57.890625 94.101562 58.414062 C 94.324219 59.3125 94.636719 60.496094 95.1875 61.503906 C 95.425781 61.949219 95.703125 62.371094 96.015625 62.75 C 94.746094 62.320312 93.5 61.816406 92.289062 61.242188 C 91.695312 60.949219 91.109375 60.636719 90.53125 60.3125 C 90.980469 59.910156 91.292969 59.3125 91.507812 58.671875 C 91.863281 57.613281 92.015625 56.371094 92.074219 55.5625 C 92.179688 53.824219 91.535156 52.195312 90.515625 51.199219 C 90.136719 50.835938 89.382812 50.765625 88.84375 51.171875 C 88.207031 51.660156 88.0625 52.304688 88.027344 53.027344 C 87.972656 54.066406 88.179688 55.191406 88.445312 56.210938 C 88.617188 56.898438 88.734375 57.589844 88.820312 58.300781 C 88.871094 58.660156 88.917969 59.023438 88.957031 59.398438 C 88.496094 59.117188 88.035156 58.828125 87.582031 58.535156 C 87.035156 56.980469 85.269531 55.511719 84.289062 54.363281 C 83.796875 53.832031 83.199219 53.046875 82.464844 52.535156 C 81.773438 51.976562 80.960938 51.648438 80.0625 51.972656 C 79.078125 52.320312 78.875 53.074219 79.085938 53.886719 C 79.1875 54.292969 79.390625 54.710938 79.636719 55.082031 C 79.769531 55.269531 79.914062 55.441406 80.066406 55.589844 C 79.792969 55.914062 79.710938 56.554688 79.777344 57.203125 C 79.863281 57.988281 80.167969 58.835938 80.304688 59.136719 C 80.335938 58.957031 80.554688 57.84375 80.6875 56.894531 C 80.726562 56.628906 80.753906 56.378906 80.761719 56.160156 C 81.269531 56.527344 81.800781 56.855469 82.363281 57.117188 C 83.019531 57.4375 83.667969 57.742188 84.347656 57.984375 C 84.835938 58.167969 85.328125 58.402344 85.824219 58.609375 C 86.066406 58.699219 86.3125 58.777344 86.558594 58.84375 C 87.144531 59.421875 87.765625 59.96875 88.433594 60.460938 C 88.082031 60.570312 87.726562 60.667969 87.371094 60.746094 C 86.753906 60.875 86.132812 60.945312 85.492188 61.003906 C 84.632812 61.089844 83.769531 61.109375 82.886719 61.136719 C 82.328125 60.925781 81.773438 60.710938 81.222656 60.480469 C 80.910156 60.191406 80.667969 59.851562 80.417969 59.484375 C 80.390625 59.4375 80.296875 59.453125 80.304688 59.523438 C 80.335938 59.769531 80.445312 59.992188 80.589844 60.191406 C 79.804688 59.84375 79.035156 59.46875 78.320312 59.019531 C 78.265625 58.980469 78.214844 58.941406 78.160156 58.902344 C 77.769531 58.53125 77.488281 58.09375 77.277344 57.578125 C 77.253906 57.523438 77.152344 57.535156 77.152344 57.597656 C 77.144531 57.851562 77.238281 58.109375 77.378906 58.351562 C 76.261719 57.546875 75.1875 56.667969 74.195312 55.710938 C 74.121094 55.457031 74.09375 55.191406 74.074219 54.933594 C 74.070312 54.875 73.992188 54.863281 73.96875 54.917969 C 73.914062 55.085938 73.921875 55.273438 73.960938 55.46875 C 73.65625 55.167969 73.351562 54.863281 73.0625 54.546875 C 72.953125 54.421875 72.757812 54.589844 72.867188 54.71875 C 73.1875 55.070312 73.515625 55.414062 73.847656 55.761719 C 73.433594 55.582031 73.007812 55.546875 72.632812 55.859375 C 72.597656 55.890625 72.644531 55.953125 72.6875 55.929688 C 73.359375 55.539062 73.882812 55.925781 74.390625 56.328125 C 74.414062 56.351562 74.433594 56.386719 74.457031 56.40625 C 74.472656 56.417969 74.488281 56.421875 74.503906 56.417969 C 75.496094 57.40625 76.554688 58.328125 77.707031 59.136719 C 77.671875 59.132812 77.636719 59.125 77.601562 59.117188 C 77.132812 59.0625 76.652344 59.0625 76.171875 59.132812 C 76.105469 59.140625 76.121094 59.238281 76.1875 59.230469 C 76.859375 59.160156 77.441406 59.28125 78.042969 59.386719 C 78.050781 59.390625 78.058594 59.398438 78.066406 59.402344 C 78.804688 59.871094 79.59375 60.332031 80.417969 60.730469 C 80.28125 60.742188 80.144531 60.757812 80.003906 60.78125 C 79.648438 60.828125 79.304688 60.886719 78.957031 61.011719 C 78.910156 61.03125 78.933594 61.109375 78.984375 61.09375 C 79.332031 60.972656 79.667969 60.929688 80.027344 60.875 C 80.210938 60.847656 80.398438 60.824219 80.582031 60.804688 C 80.878906 60.945312 81.183594 61.078125 81.492188 61.199219 C 80.773438 61.253906 79.957031 61.539062 79.519531 62.027344 C 79.296875 62.273438 79.179688 62.574219 79.230469 62.914062 C 78.78125 63.015625 78.332031 63.121094 77.882812 63.226562 C 77.804688 62.832031 77.566406 62.484375 77.351562 62.148438 C 78.046875 61.734375 78.667969 61.195312 78.773438 61.101562 C 78.484375 61.121094 77.675781 61.21875 76.914062 61.394531 C 76.894531 61.398438 76.878906 61.402344 76.859375 61.40625 C 76.453125 60.785156 76.046875 60.164062 75.617188 59.550781 C 75.582031 59.503906 75.546875 59.449219 75.507812 59.394531 C 75.652344 59.316406 75.792969 59.234375 75.941406 59.136719 C 75.714844 59.074219 75.480469 59.039062 75.242188 59.011719 C 74.484375 57.929688 73.289062 56.324219 72.148438 56.660156 C 72.144531 56.664062 72.140625 56.664062 72.136719 56.664062 C 72.367188 56.480469 72.53125 56.273438 72.5625 56.050781 C 72.183594 56.296875 71.582031 56.210938 71.109375 56.152344 C 70.742188 56.121094 69.203125 55.679688 68.910156 55.957031 C 68.449219 56.492188 69.792969 57.105469 70.167969 57.199219 C 70.578125 57.292969 71.117188 57.195312 71.582031 56.996094 C 70.894531 57.761719 71.691406 59.414062 72.253906 60.097656 C 73.039062 61.019531 74.085938 61.730469 75.117188 62.382812 C 75.800781 62.808594 76.503906 63.0625 77.214844 63.339844 C 77.230469 63.351562 77.242188 63.363281 77.253906 63.375 C 75.925781 63.6875 74.605469 63.992188 73.304688 64.21875 C 72.980469 64.273438 72.652344 64.316406 72.324219 64.367188 C 71.617188 62.609375 70.195312 61.050781 68.796875 59.96875 C 68.195312 59.546875 66.472656 57.878906 65.773438 58.777344 C 64.886719 59.859375 66.460938 61.402344 67.164062 62.078125 C 68.074219 63.007812 69.367188 64.0625 70.722656 64.601562 C 70.21875 64.671875 69.714844 64.742188 69.210938 64.816406 C 67.859375 64.960938 66.5 65.054688 65.144531 65.1875 C 65.414062 63.832031 64.5 62.097656 63.917969 61.066406 C 63.523438 60.394531 62.972656 59.839844 62.363281 59.441406 C 61.75 59.039062 61.066406 58.820312 60.421875 58.683594 C 59.976562 58.605469 59.414062 58.878906 59.25 59.425781 C 59.054688 60.074219 59.300781 60.550781 59.636719 61.078125 C 60.671875 62.765625 62.269531 63.695312 63.558594 65.183594 C 62.945312 65.183594 62.328125 65.230469 61.851562 65.40625 C 60.582031 64.761719 58.789062 64.480469 57.488281 64.269531 C 56.261719 63.984375 54.140625 63.347656 53.246094 64.753906 C 52.25 66.246094 54.394531 67.152344 55.605469 67.195312 C 56.726562 67.277344 57.871094 67.046875 58.980469 66.8125 C 59.535156 66.691406 60.082031 66.5625 60.613281 66.421875 C 61.046875 66.320312 61.46875 66.15625 61.882812 66.003906 C 61.996094 66.015625 62.085938 66.023438 62.144531 66.019531 C 62.214844 66.019531 62.261719 65.988281 62.296875 65.945312 L 62.785156 65.957031 C 63.25 65.964844 63.710938 65.984375 64.175781 65.988281 C 64.179688 65.992188 64.183594 65.996094 64.183594 66 C 64.183594 66.011719 64.1875 66.015625 64.1875 66.027344 C 64.1875 66.03125 64.183594 66.039062 64.1875 66.046875 C 63.625 67 62.867188 67.769531 62.023438 68.488281 C 61.582031 68.859375 61.125 69.246094 60.648438 69.589844 C 60.175781 69.929688 59.695312 70.277344 59.222656 70.65625 C 58.351562 71.367188 57.46875 73.113281 59.503906 73.316406 C 59.957031 73.355469 60.425781 73.347656 60.867188 73.257812 C 61.308594 73.148438 61.734375 72.992188 62.132812 72.792969 C 62.929688 72.398438 63.617188 71.847656 64.09375 71.246094 C 65.09375 70.035156 66.007812 67.328125 64.785156 66.007812 C 64.789062 66 64.796875 65.992188 64.800781 65.984375 C 65.023438 65.980469 65.246094 65.96875 65.464844 65.949219 C 66.800781 65.824219 68.140625 65.746094 69.46875 65.582031 C 70.203125 65.472656 70.933594 65.371094 71.667969 65.265625 C 70.242188 66.035156 69.046875 67.671875 68.019531 68.839844 C 67.488281 69.496094 65.507812 71.640625 66.683594 72.496094 C 67.808594 73.289062 69.382812 71.648438 70.007812 70.953125 C 71.472656 69.363281 72.554688 67.207031 72.542969 65.152344 C 72.542969 65.144531 72.535156 65.136719 72.535156 65.132812 C 72.835938 65.085938 73.140625 65.042969 73.441406 64.992188 C 74.523438 64.804688 75.636719 64.617188 76.753906 64.410156 C 76.46875 64.683594 76.183594 64.964844 75.925781 65.300781 C 75.15625 66.292969 74.445312 67.351562 73.871094 68.496094 C 73.375 69.457031 72.796875 72.183594 74.882812 71.996094 C 76.484375 71.820312 77.035156 69.320312 77.320312 68.21875 C 77.59375 67.210938 77.769531 66.171875 77.917969 65.128906 C 77.960938 64.824219 78.019531 64.492188 78.03125 64.167969 C 78.605469 64.054688 79.175781 63.929688 79.746094 63.800781 C 79.824219 63.878906 79.90625 63.960938 80.007812 64.042969 C 80.425781 64.386719 80.886719 64.6875 81.382812 64.902344 C 81.882812 65.113281 82.40625 65.265625 82.925781 65.355469 C 83.957031 65.558594 85.007812 65.464844 85.875 65.199219 C 86.765625 64.925781 87.953125 64.273438 88.796875 63.363281 C 89.359375 62.761719 89.75 62.089844 89.835938 61.402344 C 90.285156 61.675781 90.75 61.929688 91.222656 62.164062 C 92.609375 62.847656 94.058594 63.417969 95.523438 63.875 C 95.101562 63.9375 94.671875 64.023438 94.238281 64.140625 C 93.117188 64.464844 92.015625 64.820312 91.039062 65.140625 C 90.519531 65.320312 89.472656 65.605469 88.609375 66.03125 C 87.746094 66.460938 87.066406 67.046875 87.429688 67.890625 C 87.773438 68.679688 88.625 68.953125 89.53125 68.9375 C 90.441406 68.929688 91.359375 68.714844 91.953125 68.546875 C 93.191406 68.203125 94.40625 67.691406 95.4375 66.917969 C 96.367188 66.222656 97.101562 65.382812 97.582031 64.445312 C 99.023438 64.8125 100.5 65.09375 101.984375 65.289062 C 101.636719 65.460938 101.289062 65.652344 100.945312 65.839844 C 99.679688 66.539062 98.421875 67.203125 97.199219 68.0625 C 96.09375 68.820312 93.988281 71.289062 96.609375 72.277344 C 97.625 72.613281 98.613281 72.261719 99.449219 71.613281 C 100.285156 70.976562 100.941406 70.128906 101.367188 69.601562 C 102.121094 68.683594 102.761719 67.664062 103.339844 66.628906 C 103.523438 66.300781 103.785156 65.894531 103.90625 65.488281 C 106.253906 65.65625 108.597656 65.558594 110.867188 65.117188 C 111.015625 65.269531 111.191406 65.425781 111.417969 65.589844 C 111.917969 65.929688 112.460938 66.242188 113.019531 66.429688 C 113.578125 66.605469 114.148438 66.714844 114.707031 66.769531 C 115.828125 66.898438 116.875 66.660156 117.710938 66.300781 C 118.566406 65.925781 119.65625 65.125 120.34375 64.109375 C 120.8125 63.441406 121.09375 62.726562 121.074219 62.042969 C 121.558594 62.246094 122.050781 62.429688 122.546875 62.589844 C 124.007812 63.054688 125.5 63.390625 126.988281 63.644531 C 125.546875 64.070312 124.070312 64.914062 122.8125 65.523438 C 122.339844 65.773438 121.355469 66.214844 120.566406 66.75 C 119.785156 67.292969 119.195312 67.964844 119.6875 68.738281 C 119.921875 69.097656 120.257812 69.316406 120.648438 69.429688 C 121.035156 69.535156 121.464844 69.515625 121.898438 69.453125 C 122.769531 69.308594 123.636719 68.960938 124.164062 68.707031 C 126.308594 67.78125 128.285156 66.011719 129.058594 63.949219 C 130.507812 64.148438 131.960938 64.304688 133.414062 64.4375 C 133.078125 64.621094 132.746094 64.832031 132.425781 65.03125 C 131.246094 65.777344 130.097656 66.585938 129.042969 67.539062 C 128.050781 68.417969 126.40625 71.078125 128.828125 71.738281 C 130.675781 72.214844 132.214844 69.804688 132.953125 68.71875 C 133.617188 67.761719 134.195312 66.753906 134.738281 65.726562 C 134.914062 65.398438 135.171875 65 135.289062 64.597656 C 137.671875 64.777344 140.054688 64.882812 142.417969 64.914062 C 143.488281 65.328125 144.601562 65.535156 145.625 65.605469 C 145.71875 65.65625 145.796875 65.695312 145.847656 65.714844 C 145.910156 65.742188 145.960938 65.726562 146.003906 65.703125 C 146.132812 65.765625 146.265625 65.828125 146.398438 65.878906 C 146.78125 66.042969 147.171875 66.191406 147.5625 66.320312 C 147.566406 66.324219 147.566406 66.332031 147.570312 66.335938 C 147.566406 66.339844 147.566406 66.347656 147.566406 66.351562 C 147.5625 66.359375 147.558594 66.363281 147.558594 66.371094 C 146 67.6875 143.863281 67.984375 141.515625 68.226562 C 140.421875 68.328125 138.742188 69.1875 140.722656 70.46875 C 142.527344 71.558594 144.671875 71.40625 145.914062 70.691406 C 146.589844 70.320312 147.363281 69.601562 147.816406 68.769531 C 148.234375 68.019531 148.390625 67.195312 148.074219 66.507812 C 148.089844 66.5 148.101562 66.492188 148.117188 66.484375 C 148.300781 66.539062 148.484375 66.601562 148.671875 66.648438 C 150.488281 67.109375 152.339844 67.363281 154.191406 67.511719 C 152.792969 67.894531 151.382812 68.988281 150.167969 69.777344 C 149.835938 69.984375 149.113281 70.441406 148.535156 70.929688 C 147.964844 71.425781 147.550781 71.992188 148 72.53125 C 148.425781 73.035156 149.121094 73.027344 149.789062 72.835938 C 150.453125 72.632812 151.089844 72.257812 151.460938 72.03125 C 153.167969 71.035156 154.554688 69.367188 154.953125 67.578125 C 154.957031 67.574219 154.953125 67.566406 154.953125 67.5625 C 155.222656 67.578125 155.492188 67.601562 155.761719 67.613281 C 156.738281 67.664062 157.738281 67.703125 158.742188 67.71875 C 158.449219 67.910156 158.15625 68.105469 157.875 68.347656 C 157.023438 69.078125 156.195312 69.855469 155.453125 70.722656 C 154.832031 71.460938 153.734375 73.707031 155.667969 73.953125 C 157.171875 74.125 158.125 72.03125 158.574219 71.125 C 158.996094 70.28125 159.335938 69.417969 159.644531 68.539062 C 159.738281 68.28125 159.847656 68.003906 159.910156 67.726562 C 161.597656 67.71875 163.289062 67.621094 164.910156 67.335938 C 164.941406 67.34375 164.972656 67.335938 165 67.320312 C 165.363281 67.253906 165.722656 67.183594 166.078125 67.097656 C 166.230469 67.0625 166.203125 66.808594 166.050781 66.796875 " fill-opacity="1" fill-rule="nonzero"/></g><path fill="rgb(152, 75, 30)" d="M 77.390625 57.28125 C 77.671875 56.539062 77.824219 55.875 77.835938 55.082031 C 77.824219 54.785156 77.828125 53.480469 77.324219 53.890625 C 76.925781 54.199219 76.980469 55.648438 77.03125 56.070312 C 77.125 56.472656 77.164062 56.960938 77.390625 57.28125 " fill-opacity="1" fill-rule="nonzero"/><path fill="rgb(152, 75, 30)" d="M 75.5 52.382812 C 75.488281 52.042969 75.300781 50.90625 74.722656 51.253906 C 74.394531 51.46875 74.441406 52.820312 74.414062 53.167969 C 74.363281 53.609375 74.378906 54.136719 74.121094 54.46875 C 74.824219 54.367188 75.46875 53.117188 75.5 52.382812 " fill-opacity="1" fill-rule="nonzero"/><path fill="rgb(152, 75, 30)" d="M 71.144531 53.160156 C 71.824219 53.683594 72.675781 54.082031 72.808594 54.394531 C 72.730469 54.15625 72.234375 53.253906 71.765625 52.472656 C 71.285156 51.699219 70.71875 51.109375 70.285156 51.605469 C 69.902344 52.066406 70.464844 52.644531 71.144531 53.160156 " fill-opacity="1" fill-rule="nonzero"/><path fill="rgb(152, 75, 30)" d="M 95.953125 50.636719 C 97.050781 51.570312 99.484375 51.699219 100.144531 50.71875 C 99.4375 50.808594 98.667969 50.25 98.015625 49.816406 C 97.761719 49.648438 97.160156 49.132812 96.566406 48.640625 C 95.964844 48.15625 95.367188 47.695312 95.054688 47.789062 C 94.535156 47.988281 94.617188 48.621094 94.921875 49.226562 C 95.207031 49.839844 95.71875 50.417969 95.953125 50.636719 " fill-opacity="1" fill-rule="nonzero"/><path fill="rgb(152, 75, 30)" d="M 106.242188 55.640625 C 107.140625 54.726562 107.765625 53.886719 108.289062 52.792969 C 108.449219 52.375 109.359375 50.550781 108.386719 50.800781 C 107.609375 50.980469 106.671875 53.082031 106.496094 53.703125 C 106.367188 54.328125 106.152344 55.027344 106.242188 55.640625 " fill-opacity="1" fill-rule="nonzero"/><path fill="rgb(152, 75, 30)" d="M 106.875 47.605469 C 107.085938 47.136719 107.703125 45.5625 106.652344 45.632812 C 106.351562 45.667969 105.933594 46.109375 105.582031 46.628906 C 105.226562 47.148438 104.929688 47.734375 104.789062 47.953125 C 104.414062 48.511719 104.0625 49.261719 103.453125 49.554688 C 104.492188 49.898438 106.328125 48.550781 106.875 47.605469 " fill-opacity="1" fill-rule="nonzero"/><g clip-path="url(#id4)"><path fill="rgb(152, 75, 30)" d="M 101.65625 48.542969 C 101.675781 48.160156 101.707031 46.523438 101.664062 45.117188 C 101.589844 43.714844 101.464844 42.488281 100.445312 42.71875 C 99.523438 42.972656 99.71875 44.320312 100.269531 45.570312 C 100.808594 46.839844 101.664062 48.019531 101.65625 48.542969 " fill-opacity="1" fill-rule="nonzero"/></g><path fill="rgb(152, 75, 30)" d="M 134.703125 59.652344 C 134.519531 60.28125 135.371094 60.382812 136.28125 60.265625 C 137.195312 60.15625 138.164062 59.851562 138.328125 59.796875 C 138.03125 59.699219 137.207031 59.453125 136.402344 59.320312 C 135.613281 59.179688 134.839844 59.152344 134.703125 59.652344 " fill-opacity="1" fill-rule="nonzero"/><path fill="rgb(152, 75, 30)" d="M 131.425781 51.816406 C 132.203125 52.589844 133.863281 52.738281 134.332031 52.042969 C 133.855469 52.082031 133.304688 51.667969 132.875 51.296875 C 132.707031 51.15625 132.316406 50.71875 131.917969 50.289062 C 131.539062 49.851562 131.179688 49.390625 130.957031 49.433594 C 130.59375 49.527344 130.570312 50.097656 130.761719 50.605469 C 130.945312 51.117188 131.269531 51.625 131.425781 51.816406 " fill-opacity="1" fill-rule="nonzero"/><path fill="rgb(152, 75, 30)" d="M 142.074219 56.460938 C 142.605469 55.546875 142.96875 54.734375 142.28125 54.746094 C 141.726562 54.746094 141.285156 55.472656 141.027344 56.335938 C 140.777344 57.191406 140.710938 58.179688 140.726562 58.527344 C 140.84375 58.363281 141.53125 57.375 142.074219 56.460938 " fill-opacity="1" fill-rule="nonzero"/><path fill="rgb(152, 75, 30)" d="M 138.585938 55.414062 C 139.183594 54.773438 139.597656 54.175781 139.941406 53.410156 C 140.027344 53.113281 140.648438 51.867188 139.984375 52.066406 C 139.453125 52.195312 138.816406 53.632812 138.722656 54.070312 C 138.644531 54.503906 138.507812 54.992188 138.585938 55.414062 " fill-opacity="1" fill-rule="nonzero"/><path fill="rgb(152, 75, 30)" d="M 139.039062 50.113281 C 139.136719 49.988281 139.316406 49.703125 139.371094 49.46875 C 139.433594 49.234375 139.433594 49.078125 139.0625 49.050781 C 138.855469 49.050781 138.519531 49.246094 138.226562 49.523438 C 137.960938 49.808594 137.714844 50.15625 137.601562 50.289062 C 137.292969 50.625 137.066406 51.113281 136.632812 51.300781 C 137.332031 51.542969 138.621094 50.644531 139.039062 50.113281 " fill-opacity="1" fill-rule="nonzero"/><path fill="rgb(152, 75, 30)" d="M 135.160156 49.703125 C 135.3125 50.082031 135.457031 50.382812 135.429688 50.566406 C 135.457031 50.433594 135.472656 50.085938 135.523438 49.660156 C 135.609375 49.230469 135.625 48.722656 135.742188 48.257812 C 135.785156 48.027344 135.800781 47.800781 135.828125 47.59375 C 135.871094 47.390625 135.886719 47.207031 135.875 47.042969 C 135.84375 46.71875 135.695312 46.476562 135.34375 46.457031 C 134.71875 46.425781 134.507812 47.421875 134.738281 48.378906 C 134.808594 48.859375 135.042969 49.324219 135.160156 49.703125 " fill-opacity="1" fill-rule="nonzero"/><path fill="rgb(152, 75, 30)" d="M 153.109375 59.722656 C 152.921875 60.453125 154.011719 60.164062 154.328125 60.082031 C 155.011719 59.777344 156.191406 58.726562 156.144531 57.960938 C 155.859375 58.324219 155.296875 58.496094 154.878906 58.6875 C 154.542969 58.800781 153.207031 59.304688 153.109375 59.722656 " fill-opacity="1" fill-rule="nonzero"/><path fill="rgb(152, 75, 30)" d="M 165.085938 57.875 C 164.433594 57.816406 164.238281 58.726562 164.078125 59.691406 C 163.9375 60.664062 163.839844 61.691406 163.816406 62.058594 C 163.941406 61.910156 164.726562 60.976562 165.222656 59.980469 C 165.703125 59.007812 165.914062 57.941406 165.085938 57.875 " fill-opacity="1" fill-rule="nonzero"/><path fill="rgb(152, 75, 30)" d="M 160.929688 57.363281 C 161.058594 57.855469 161.136719 58.363281 161.320312 58.800781 C 161.738281 58.011719 161.921875 57.296875 161.820312 56.324219 C 161.804688 55.972656 161.367188 54.273438 160.832031 54.730469 C 160.636719 54.914062 160.671875 55.460938 160.730469 56.015625 C 160.800781 56.566406 160.902344 57.117188 160.929688 57.363281 " fill-opacity="1" fill-rule="nonzero"/><path fill="rgb(152, 75, 30)" d="M 157.207031 55.828125 C 157.921875 55.550781 158.171875 53.972656 157.675781 53.160156 C 157.46875 52.773438 156.3125 51.628906 155.925781 52.246094 C 155.757812 52.628906 156.769531 53.976562 156.890625 54.367188 C 157.089844 54.84375 157.359375 55.390625 157.207031 55.828125 " fill-opacity="1" fill-rule="nonzero"/><path fill="rgb(152, 75, 30)" d="M 153.679688 55.980469 C 154.121094 55.984375 154.589844 55.984375 154.980469 56.035156 C 155.371094 56.070312 155.699219 56.121094 155.828125 56.25 C 155.648438 56.070312 154.75 55.367188 153.808594 54.996094 C 152.875 54.613281 151.964844 54.53125 151.988281 55.234375 C 152.011719 55.902344 152.804688 55.929688 153.679688 55.980469 " fill-opacity="1" fill-rule="nonzero"/></svg>